<?xml version="1.0" standalone="no"?>
<!DOCTYPE svg PUBLIC "-//W3C//DTD SVG 20010904//EN"
 "http://www.w3.org/TR/2001/REC-SVG-20010904/DTD/svg10.dtd">
<svg version="1.0" xmlns="http://www.w3.org/2000/svg"
 width="700.000000pt" height="700.000000pt" viewBox="0 0 700.000000 700.000000"
 preserveAspectRatio="xMidYMid meet">
<metadata>
Created by potrace 1.11, written by Peter Selinger 2001-2013
</metadata>
<g transform="translate(0.000000,700.000000) scale(0.100000,-0.100000)"
fill="#000000" stroke="none">
<path d="M3370 6604 c-150 -39 -282 -147 -350 -288 -34 -72 -56 -156 -53 -208
0 -10 -1 -18 -4 -18 -2 0 -27 19 -56 41 -209 166 -523 140 -710 -58 -146 -155
-186 -390 -100 -583 17 -38 40 -73 103 -155 5 -6 -14 -11 -52 -13 -225 -10
-450 -233 -471 -466 -3 -26 -7 -49 -10 -52 -2 -3 -23 11 -46 30 -94 78 -216
117 -351 111 -139 -6 -238 -47 -345 -146 -195 -180 -222 -493 -60 -701 50 -64
52 -61 -40 -72 -159 -19 -323 -146 -398 -307 -34 -73 -41 -106 -41 -209 -1
-101 5 -138 33 -207 30 -75 60 -120 125 -185 87 -85 213 -144 324 -150 47 -2
51 -7 22 -33 -43 -39 -101 -149 -116 -220 -2 -11 -6 -31 -9 -45 -3 -14 -6 -50
-6 -80 0 -178 73 -322 220 -434 191 -145 469 -138 649 16 41 35 48 35 46 1 -2
-42 23 -136 50 -194 81 -167 247 -286 425 -303 54 -5 58 -10 31 -38 -139 -148
-167 -409 -65 -595 161 -293 539 -376 792 -174 29 22 54 41 56 41 3 0 4 -10 3
-22 -3 -45 27 -154 60 -218 71 -136 198 -237 345 -274 183 -46 369 6 504 142
63 63 128 169 141 232 17 83 20 108 18 123 -3 24 0 22 58 -24 93 -73 193 -108
318 -110 309 -5 564 271 536 581 -7 83 -14 107 -57 194 -13 28 -39 68 -58 90
l-33 40 83 17 c244 48 412 225 443 468 3 24 8 46 10 48 2 2 22 -12 45 -31 116
-97 306 -139 454 -100 139 37 290 155 349 274 92 186 76 400 -44 557 -26 34
-44 64 -40 66 4 2 23 4 42 6 81 5 208 55 268 104 100 83 179 204 200 306 4 20
7 79 7 131 -1 173 -61 294 -208 417 -60 51 -191 101 -275 106 -45 2 -50 8 -27
27 8 6 31 37 51 67 206 310 22 737 -351 813 -148 30 -334 -20 -442 -119 -18
-16 -33 -25 -34 -18 -10 166 -78 302 -201 404 -81 66 -171 104 -287 119 -19 2
-36 6 -38 8 -3 2 9 19 25 37 69 80 122 223 122 329 0 222 -145 432 -350 508
-170 62 -357 36 -497 -69 -35 -27 -65 -49 -67 -49 -1 0 -3 19 -4 43 -6 150
-121 332 -261 414 -113 66 -274 89 -401 57z"/>
</g>
</svg>
